<?xml version="1.0" encoding="utf-8"?>
<!-- Generator: Adobe Illustrator 19.1.0, SVG Export Plug-In . SVG Version: 6.00 Build 0)  -->
<!DOCTYPE svg PUBLIC "-//W3C//DTD SVG 1.1//EN" "http://www.w3.org/Graphics/SVG/1.1/DTD/svg11.dtd">
<svg version="1.1" id="Layer_1" xmlns="http://www.w3.org/2000/svg" xmlns:xlink="http://www.w3.org/1999/xlink" x="0px" y="0px"
	 viewBox="0 0 198.6 37.2" enable-background="new 0 0 198.6 37.2" xml:space="preserve">
<g>
	<g>
		<path fill="#F9EF7F" d="M57.3,11.9c0.1,0,0.3,0.1,0.4,0.2l1,1.1c-0.5,0.7-1.2,1.2-2,1.6c-0.8,0.4-1.8,0.5-2.9,0.5
			c-1,0-1.9-0.2-2.7-0.5s-1.5-0.8-2-1.4c-0.6-0.6-1-1.3-1.3-2.2c-0.3-0.8-0.5-1.8-0.5-2.8c0-1,0.2-1.9,0.5-2.8
			c0.3-0.8,0.8-1.6,1.4-2.2c0.6-0.6,1.3-1.1,2.2-1.4c0.8-0.3,1.8-0.5,2.8-0.5c1,0,1.9,0.2,2.6,0.5c0.7,0.3,1.4,0.7,1.9,1.3l-0.8,1.2
			c0,0.1-0.1,0.1-0.2,0.2c-0.1,0.1-0.2,0.1-0.3,0.1c-0.1,0-0.3-0.1-0.4-0.2c-0.1-0.1-0.3-0.2-0.6-0.4c-0.2-0.1-0.5-0.3-0.9-0.4
			c-0.4-0.1-0.8-0.2-1.3-0.2c-0.6,0-1.2,0.1-1.7,0.3c-0.5,0.2-1,0.5-1.4,0.9s-0.7,0.9-0.9,1.5c-0.2,0.6-0.3,1.2-0.3,2
			c0,0.8,0.1,1.4,0.3,2c0.2,0.6,0.5,1.1,0.9,1.5c0.4,0.4,0.8,0.7,1.3,0.9c0.5,0.2,1,0.3,1.6,0.3c0.3,0,0.6,0,0.9-0.1
			c0.3,0,0.5-0.1,0.8-0.2c0.2-0.1,0.5-0.2,0.7-0.3s0.4-0.3,0.6-0.5C57,12,57,12,57.1,12C57.2,11.9,57.2,11.9,57.3,11.9z"/>
		<path fill="#F9EF7F" d="M62.9,1.3v13.8h-2.3V1.3H62.9z"/>
		<path fill="#F9EF7F" d="M68.2,2.8c0,0.2,0,0.4-0.1,0.6s-0.2,0.3-0.3,0.5c-0.1,0.1-0.3,0.2-0.5,0.3S67,4.2,66.8,4.2
			c-0.2,0-0.4,0-0.6-0.1C66,4,65.9,3.9,65.7,3.8c-0.1-0.1-0.2-0.3-0.3-0.5S65.3,3,65.3,2.8c0-0.2,0-0.4,0.1-0.6s0.2-0.3,0.3-0.5
			c0.1-0.1,0.3-0.2,0.5-0.3c0.2-0.1,0.4-0.1,0.6-0.1c0.2,0,0.4,0,0.6,0.1c0.2,0.1,0.3,0.2,0.5,0.3C67.9,1.9,68,2,68.1,2.2
			S68.2,2.6,68.2,2.8z M67.9,5.5v9.5h-2.3V5.5H67.9z"/>
		<path fill="#F9EF7F" d="M70.5,15.1V5.5h1.4c0.3,0,0.5,0.1,0.6,0.4l0.1,0.7c0.2-0.2,0.3-0.4,0.5-0.5c0.2-0.2,0.4-0.3,0.6-0.4
			c0.2-0.1,0.4-0.2,0.7-0.3c0.2-0.1,0.5-0.1,0.8-0.1c0.6,0,1.1,0.2,1.5,0.5s0.7,0.8,0.9,1.3c0.1-0.3,0.3-0.6,0.6-0.8
			c0.2-0.2,0.5-0.4,0.7-0.6c0.3-0.1,0.5-0.2,0.9-0.3c0.3-0.1,0.6-0.1,0.9-0.1c0.5,0,1,0.1,1.4,0.2c0.4,0.2,0.8,0.4,1,0.7
			c0.3,0.3,0.5,0.7,0.6,1.1s0.2,1,0.2,1.5v6.1h-2.3V9c0-0.6-0.1-1.1-0.4-1.4c-0.3-0.3-0.7-0.5-1.2-0.5c-0.2,0-0.5,0-0.7,0.1
			c-0.2,0.1-0.4,0.2-0.5,0.3c-0.2,0.2-0.3,0.3-0.4,0.6c-0.1,0.2-0.1,0.5-0.1,0.8v6.1H76V9c0-0.6-0.1-1.1-0.4-1.4
			c-0.3-0.3-0.6-0.4-1.1-0.4c-0.3,0-0.6,0.1-0.9,0.2S73,7.8,72.8,8.1v7H70.5z"/>
		<path fill="#F9EF7F" d="M93.6,15.1h-1c-0.2,0-0.4,0-0.5-0.1c-0.1-0.1-0.2-0.2-0.3-0.4l-0.2-0.7c-0.2,0.2-0.5,0.4-0.7,0.6
			s-0.5,0.3-0.7,0.4s-0.5,0.2-0.8,0.3c-0.3,0.1-0.6,0.1-0.9,0.1c-0.4,0-0.8-0.1-1.1-0.2c-0.3-0.1-0.6-0.3-0.9-0.5
			c-0.2-0.2-0.4-0.5-0.6-0.8c-0.1-0.3-0.2-0.7-0.2-1.1c0-0.4,0.1-0.7,0.3-1.1c0.2-0.4,0.5-0.7,0.9-1c0.4-0.3,1-0.5,1.8-0.7
			s1.6-0.3,2.7-0.3V9.1c0-0.6-0.1-1.1-0.4-1.4s-0.7-0.5-1.2-0.5c-0.4,0-0.7,0-0.9,0.1c-0.2,0.1-0.5,0.2-0.6,0.3
			c-0.2,0.1-0.4,0.2-0.5,0.3C87.6,8,87.4,8,87.2,8c-0.2,0-0.3,0-0.4-0.1c-0.1-0.1-0.2-0.2-0.3-0.3l-0.4-0.7c1.1-1,2.4-1.5,4-1.5
			c0.6,0,1.1,0.1,1.5,0.3c0.4,0.2,0.8,0.4,1.1,0.8c0.3,0.3,0.5,0.7,0.7,1.2s0.2,0.9,0.2,1.5V15.1z M89.2,13.6c0.2,0,0.5,0,0.7-0.1
			c0.2,0,0.4-0.1,0.6-0.2c0.2-0.1,0.3-0.2,0.5-0.3s0.3-0.3,0.5-0.4V11c-0.7,0-1.2,0-1.7,0.1c-0.4,0.1-0.8,0.2-1.1,0.3
			c-0.3,0.1-0.5,0.3-0.6,0.5c-0.1,0.2-0.2,0.4-0.2,0.6c0,0.4,0.1,0.7,0.4,0.9C88.5,13.6,88.8,13.6,89.2,13.6z"/>
		<path fill="#F9EF7F" d="M99,15.2c-0.8,0-1.5-0.2-1.9-0.7s-0.7-1.1-0.7-1.9V7.3h-1c-0.1,0-0.2,0-0.3-0.1C95.1,7.1,95,6.9,95,6.8
			V5.9l1.5-0.3L97,3c0-0.1,0.1-0.2,0.2-0.3s0.2-0.1,0.3-0.1h1.2v3h2.5v1.6h-2.5v5.2c0,0.3,0.1,0.5,0.2,0.7c0.1,0.2,0.3,0.3,0.6,0.3
			c0.1,0,0.3,0,0.4-0.1c0.1,0,0.2-0.1,0.2-0.1s0.1-0.1,0.2-0.1c0.1,0,0.1-0.1,0.2-0.1c0.1,0,0.1,0,0.2,0.1s0.1,0.1,0.1,0.2l0.7,1.1
			c-0.3,0.3-0.7,0.5-1.2,0.6C99.9,15.2,99.5,15.2,99,15.2z"/>
		<path fill="#F9EF7F" d="M107,5.4c0.6,0,1.2,0.1,1.7,0.3c0.5,0.2,0.9,0.5,1.3,0.8c0.4,0.4,0.7,0.8,0.9,1.4c0.2,0.5,0.3,1.1,0.3,1.8
			c0,0.2,0,0.3,0,0.4c0,0.1,0,0.2-0.1,0.3c0,0.1-0.1,0.1-0.2,0.1c-0.1,0-0.2,0-0.3,0h-5.9c0.1,1,0.3,1.7,0.8,2.2
			c0.5,0.5,1.1,0.7,1.8,0.7c0.4,0,0.7,0,1-0.1c0.3-0.1,0.5-0.2,0.7-0.3c0.2-0.1,0.4-0.2,0.5-0.3c0.2-0.1,0.3-0.1,0.4-0.1
			c0.1,0,0.2,0,0.2,0.1s0.1,0.1,0.2,0.2l0.7,0.8c-0.3,0.3-0.5,0.5-0.9,0.7c-0.3,0.2-0.6,0.4-1,0.5s-0.7,0.2-1,0.3
			c-0.4,0-0.7,0.1-1,0.1c-0.7,0-1.3-0.1-1.8-0.3c-0.6-0.2-1.1-0.5-1.5-1c-0.4-0.4-0.8-1-1-1.6c-0.2-0.6-0.4-1.4-0.4-2.2
			c0-0.7,0.1-1.3,0.3-1.8c0.2-0.6,0.5-1.1,0.9-1.5c0.4-0.4,0.9-0.8,1.4-1C105.7,5.5,106.3,5.4,107,5.4z M107,7
			c-0.7,0-1.2,0.2-1.6,0.6s-0.6,0.9-0.7,1.6h4.3c0-0.3,0-0.6-0.1-0.8c-0.1-0.3-0.2-0.5-0.4-0.7s-0.4-0.4-0.6-0.5S107.4,7,107,7z"/>
		<path fill="#F9EF7F" d="M123.9,4.1c-0.1,0.1-0.1,0.2-0.2,0.3s-0.2,0.1-0.3,0.1s-0.3,0-0.4-0.1c-0.2-0.1-0.3-0.2-0.5-0.3
			c-0.2-0.1-0.5-0.2-0.7-0.3c-0.3-0.1-0.6-0.1-1-0.1c-0.3,0-0.6,0-0.9,0.1c-0.3,0.1-0.5,0.2-0.7,0.3c-0.2,0.1-0.3,0.3-0.4,0.5
			c-0.1,0.2-0.1,0.4-0.1,0.7c0,0.3,0.1,0.6,0.3,0.8c0.2,0.2,0.4,0.4,0.7,0.5c0.3,0.1,0.6,0.3,1,0.4c0.4,0.1,0.8,0.2,1.1,0.4
			c0.4,0.1,0.8,0.3,1.1,0.5c0.4,0.2,0.7,0.4,1,0.7s0.5,0.6,0.7,1s0.3,0.9,0.3,1.4c0,0.6-0.1,1.2-0.3,1.7c-0.2,0.5-0.5,1-0.9,1.4
			c-0.4,0.4-0.9,0.7-1.5,0.9c-0.6,0.2-1.2,0.3-2,0.3c-0.4,0-0.8,0-1.3-0.1c-0.4-0.1-0.8-0.2-1.2-0.4c-0.4-0.2-0.7-0.3-1.1-0.6
			s-0.6-0.5-0.9-0.7l0.7-1.2c0.1-0.1,0.1-0.2,0.2-0.2c0.1-0.1,0.2-0.1,0.3-0.1c0.2,0,0.3,0.1,0.5,0.2s0.4,0.3,0.6,0.4
			c0.2,0.2,0.5,0.3,0.9,0.4c0.3,0.1,0.7,0.2,1.2,0.2c0.7,0,1.3-0.2,1.7-0.5c0.4-0.3,0.6-0.8,0.6-1.5c0-0.4-0.1-0.6-0.3-0.9
			c-0.2-0.2-0.4-0.4-0.7-0.6c-0.3-0.2-0.6-0.3-1-0.4c-0.4-0.1-0.8-0.2-1.1-0.3c-0.4-0.1-0.8-0.3-1.1-0.4c-0.4-0.2-0.7-0.4-1-0.7
			c-0.3-0.3-0.5-0.6-0.7-1c-0.2-0.4-0.3-0.9-0.3-1.5c0-0.5,0.1-1,0.3-1.4s0.5-0.9,0.9-1.2c0.4-0.4,0.8-0.6,1.4-0.9s1.2-0.3,1.9-0.3
			c0.8,0,1.5,0.1,2.2,0.4s1.2,0.6,1.7,1L123.9,4.1z"/>
		<path fill="#F9EF7F" d="M129.7,15.2c-0.8,0-1.5-0.2-1.9-0.7s-0.7-1.1-0.7-1.9V7.3h-1c-0.1,0-0.2,0-0.3-0.1
			c-0.1-0.1-0.1-0.2-0.1-0.4V5.9l1.5-0.3l0.5-2.6c0-0.1,0.1-0.2,0.2-0.3s0.2-0.1,0.3-0.1h1.2v3h2.5v1.6h-2.5v5.2
			c0,0.3,0.1,0.5,0.2,0.7c0.1,0.2,0.3,0.3,0.6,0.3c0.1,0,0.3,0,0.4-0.1c0.1,0,0.2-0.1,0.2-0.1s0.1-0.1,0.2-0.1
			c0.1,0,0.1-0.1,0.2-0.1c0.1,0,0.1,0,0.2,0.1s0.1,0.1,0.1,0.2l0.7,1.1c-0.3,0.3-0.7,0.5-1.2,0.6C130.6,15.2,130.1,15.2,129.7,15.2z
			"/>
		<path fill="#F9EF7F" d="M133.7,15.1V5.5h1.3c0.2,0,0.4,0,0.5,0.1s0.2,0.2,0.2,0.4l0.1,1.2c0.3-0.6,0.7-1.1,1.2-1.4
			c0.5-0.3,1-0.5,1.5-0.5c0.5,0,0.9,0.1,1.2,0.3l-0.3,1.7c0,0.1-0.1,0.2-0.1,0.2c-0.1,0-0.1,0.1-0.3,0.1c-0.1,0-0.2,0-0.4-0.1
			c-0.2,0-0.4-0.1-0.6-0.1c-0.5,0-0.9,0.1-1.2,0.4c-0.3,0.3-0.6,0.6-0.9,1.2v5.9H133.7z"/>
		<path fill="#F9EF7F" d="M148.5,15.1h-1c-0.2,0-0.4,0-0.5-0.1s-0.2-0.2-0.3-0.4l-0.2-0.7c-0.2,0.2-0.5,0.4-0.7,0.6
			s-0.5,0.3-0.7,0.4c-0.2,0.1-0.5,0.2-0.8,0.3c-0.3,0.1-0.6,0.1-0.9,0.1c-0.4,0-0.8-0.1-1.1-0.2s-0.6-0.3-0.9-0.5
			c-0.2-0.2-0.4-0.5-0.6-0.8c-0.1-0.3-0.2-0.7-0.2-1.1c0-0.4,0.1-0.7,0.3-1.1c0.2-0.4,0.5-0.7,0.9-1c0.4-0.3,1-0.5,1.8-0.7
			c0.7-0.2,1.6-0.3,2.7-0.3V9.1c0-0.6-0.1-1.1-0.4-1.4s-0.7-0.5-1.2-0.5c-0.4,0-0.7,0-0.9,0.1c-0.2,0.1-0.5,0.2-0.6,0.3
			c-0.2,0.1-0.4,0.2-0.5,0.3C142.5,8,142.3,8,142.1,8c-0.2,0-0.3,0-0.4-0.1c-0.1-0.1-0.2-0.2-0.3-0.3L141,6.9c1.1-1,2.4-1.5,4-1.5
			c0.6,0,1.1,0.1,1.5,0.3s0.8,0.4,1.1,0.8s0.5,0.7,0.7,1.2s0.2,0.9,0.2,1.5V15.1z M144.1,13.6c0.2,0,0.5,0,0.7-0.1s0.4-0.1,0.6-0.2
			c0.2-0.1,0.3-0.2,0.5-0.3s0.3-0.3,0.5-0.4V11c-0.7,0-1.2,0-1.7,0.1c-0.4,0.1-0.8,0.2-1.1,0.3s-0.5,0.3-0.6,0.5s-0.2,0.4-0.2,0.6
			c0,0.4,0.1,0.7,0.4,0.9C143.4,13.6,143.7,13.6,144.1,13.6z"/>
		<path fill="#F9EF7F" d="M153.9,15.2c-0.8,0-1.5-0.2-1.9-0.7s-0.7-1.1-0.7-1.9V7.3h-1c-0.1,0-0.2,0-0.3-0.1
			c-0.1-0.1-0.1-0.2-0.1-0.4V5.9l1.5-0.3l0.5-2.6c0-0.1,0.1-0.2,0.2-0.3s0.2-0.1,0.3-0.1h1.2v3h2.5v1.6h-2.5v5.2
			c0,0.3,0.1,0.5,0.2,0.7c0.1,0.2,0.3,0.3,0.6,0.3c0.1,0,0.3,0,0.4-0.1c0.1,0,0.2-0.1,0.2-0.1s0.1-0.1,0.2-0.1
			c0.1,0,0.1-0.1,0.2-0.1c0.1,0,0.1,0,0.2,0.1s0.1,0.1,0.1,0.2l0.7,1.1c-0.3,0.3-0.7,0.5-1.2,0.6C154.8,15.2,154.4,15.2,153.9,15.2z
			"/>
		<path fill="#F9EF7F" d="M161.9,5.4c0.6,0,1.2,0.1,1.7,0.3c0.5,0.2,0.9,0.5,1.3,0.8c0.4,0.4,0.7,0.8,0.9,1.4
			c0.2,0.5,0.3,1.1,0.3,1.8c0,0.2,0,0.3,0,0.4c0,0.1,0,0.2-0.1,0.3c0,0.1-0.1,0.1-0.2,0.1c-0.1,0-0.2,0-0.3,0h-5.9
			c0.1,1,0.3,1.7,0.8,2.2c0.5,0.5,1.1,0.7,1.8,0.7c0.4,0,0.7,0,1-0.1c0.3-0.1,0.5-0.2,0.7-0.3c0.2-0.1,0.4-0.2,0.5-0.3
			c0.2-0.1,0.3-0.1,0.4-0.1c0.1,0,0.2,0,0.2,0.1s0.1,0.1,0.2,0.2l0.7,0.8c-0.3,0.3-0.5,0.5-0.9,0.7c-0.3,0.2-0.6,0.4-1,0.5
			s-0.7,0.2-1,0.3c-0.4,0-0.7,0.1-1,0.1c-0.7,0-1.3-0.1-1.8-0.3c-0.6-0.2-1.1-0.5-1.5-1c-0.4-0.4-0.8-1-1-1.6
			c-0.2-0.6-0.4-1.4-0.4-2.2c0-0.7,0.1-1.3,0.3-1.8c0.2-0.6,0.5-1.1,0.9-1.5c0.4-0.4,0.9-0.8,1.4-1C160.6,5.5,161.2,5.4,161.9,5.4z
			 M162,7c-0.7,0-1.2,0.2-1.6,0.6s-0.6,0.9-0.7,1.6h4.3c0-0.3,0-0.6-0.1-0.8c-0.1-0.3-0.2-0.5-0.4-0.7s-0.4-0.4-0.6-0.5
			S162.3,7,162,7z"/>
		<path fill="#F9EF7F" d="M171.2,5.4c0.4,0,0.8,0,1.2,0.1c0.4,0.1,0.7,0.2,1,0.4h2.7v0.9c0,0.1,0,0.3-0.1,0.3
			c-0.1,0.1-0.2,0.1-0.4,0.2l-0.9,0.2c0.1,0.2,0.1,0.3,0.1,0.5s0.1,0.4,0.1,0.6c0,0.5-0.1,0.9-0.3,1.3c-0.2,0.4-0.4,0.7-0.8,1
			c-0.3,0.3-0.7,0.5-1.2,0.6s-0.9,0.2-1.5,0.2c-0.4,0-0.7,0-1.1-0.1c-0.3,0.2-0.4,0.4-0.4,0.6c0,0.2,0.1,0.3,0.3,0.4
			c0.2,0.1,0.4,0.2,0.7,0.2c0.3,0,0.6,0.1,1,0.1c0.4,0,0.7,0,1.1,0c0.4,0,0.8,0.1,1.1,0.2c0.4,0.1,0.7,0.2,1,0.4
			c0.3,0.2,0.5,0.4,0.7,0.7c0.2,0.3,0.3,0.7,0.3,1.1c0,0.4-0.1,0.8-0.3,1.2c-0.2,0.4-0.5,0.8-0.9,1.1s-0.9,0.6-1.4,0.8
			c-0.6,0.2-1.2,0.3-2,0.3c-0.7,0-1.4-0.1-1.9-0.2c-0.5-0.1-1-0.3-1.3-0.6c-0.4-0.2-0.6-0.5-0.8-0.8c-0.2-0.3-0.3-0.6-0.3-0.9
			c0-0.4,0.1-0.8,0.4-1.1s0.7-0.5,1.1-0.7c-0.2-0.1-0.4-0.3-0.6-0.5c-0.1-0.2-0.2-0.5-0.2-0.8c0-0.1,0-0.3,0.1-0.4
			c0-0.2,0.1-0.3,0.2-0.5s0.2-0.3,0.4-0.4c0.2-0.1,0.3-0.3,0.5-0.4c-0.5-0.3-0.9-0.6-1.1-1c-0.3-0.4-0.4-0.9-0.4-1.5
			c0-0.5,0.1-0.9,0.3-1.3c0.2-0.4,0.5-0.7,0.8-1s0.7-0.5,1.2-0.6C170.2,5.4,170.7,5.4,171.2,5.4z M173.7,15.5c0-0.2-0.1-0.3-0.2-0.5
			s-0.3-0.2-0.5-0.3c-0.2-0.1-0.4-0.1-0.7-0.1c-0.3,0-0.5,0-0.8,0c-0.3,0-0.6,0-0.9,0s-0.6,0-0.9-0.1c-0.3,0.1-0.5,0.3-0.6,0.5
			s-0.2,0.4-0.2,0.7c0,0.2,0,0.3,0.1,0.5s0.2,0.3,0.4,0.4c0.2,0.1,0.4,0.2,0.7,0.2c0.3,0.1,0.6,0.1,1.1,0.1c0.4,0,0.8,0,1.1-0.1
			c0.3-0.1,0.6-0.2,0.8-0.3c0.2-0.1,0.3-0.3,0.4-0.4C173.7,15.8,173.7,15.7,173.7,15.5z M171.2,10.1c0.3,0,0.5,0,0.7-0.1
			c0.2-0.1,0.4-0.2,0.5-0.3c0.1-0.1,0.2-0.3,0.3-0.5c0.1-0.2,0.1-0.4,0.1-0.6c0-0.5-0.1-0.8-0.4-1.1c-0.3-0.3-0.7-0.4-1.3-0.4
			c-0.6,0-1,0.1-1.3,0.4c-0.3,0.3-0.4,0.6-0.4,1.1c0,0.2,0,0.4,0.1,0.6c0.1,0.2,0.2,0.4,0.3,0.5s0.3,0.2,0.5,0.3
			C170.7,10,170.9,10.1,171.2,10.1z"/>
		<path fill="#F9EF7F" d="M180.3,2.8c0,0.2,0,0.4-0.1,0.6c-0.1,0.2-0.2,0.3-0.3,0.5c-0.1,0.1-0.3,0.2-0.5,0.3s-0.4,0.1-0.6,0.1
			c-0.2,0-0.4,0-0.6-0.1c-0.2-0.1-0.3-0.2-0.5-0.3c-0.1-0.1-0.2-0.3-0.3-0.5c-0.1-0.2-0.1-0.4-0.1-0.6c0-0.2,0-0.4,0.1-0.6
			c0.1-0.2,0.2-0.3,0.3-0.5c0.1-0.1,0.3-0.2,0.5-0.3c0.2-0.1,0.4-0.1,0.6-0.1c0.2,0,0.4,0,0.6,0.1c0.2,0.1,0.3,0.2,0.5,0.3
			c0.1,0.1,0.2,0.3,0.3,0.5C180.3,2.4,180.3,2.6,180.3,2.8z M180,5.5v9.5h-2.3V5.5H180z"/>
		<path fill="#F9EF7F" d="M186.5,5.4c0.6,0,1.2,0.1,1.7,0.3c0.5,0.2,0.9,0.5,1.3,0.8c0.4,0.4,0.7,0.8,0.9,1.4
			c0.2,0.5,0.3,1.1,0.3,1.8c0,0.2,0,0.3,0,0.4c0,0.1,0,0.2-0.1,0.3c0,0.1-0.1,0.1-0.2,0.1c-0.1,0-0.2,0-0.3,0h-5.9
			c0.1,1,0.3,1.7,0.8,2.2c0.5,0.5,1.1,0.7,1.8,0.7c0.4,0,0.7,0,1-0.1c0.3-0.1,0.5-0.2,0.7-0.3c0.2-0.1,0.4-0.2,0.5-0.3
			c0.2-0.1,0.3-0.1,0.4-0.1c0.1,0,0.2,0,0.2,0.1s0.1,0.1,0.2,0.2l0.7,0.8c-0.3,0.3-0.5,0.5-0.9,0.7c-0.3,0.2-0.6,0.4-1,0.5
			s-0.7,0.2-1,0.3c-0.4,0-0.7,0.1-1,0.1c-0.7,0-1.3-0.1-1.8-0.3c-0.6-0.2-1.1-0.5-1.5-1c-0.4-0.4-0.8-1-1-1.6
			c-0.2-0.6-0.4-1.4-0.4-2.2c0-0.7,0.1-1.3,0.3-1.8c0.2-0.6,0.5-1.1,0.9-1.5c0.4-0.4,0.9-0.8,1.4-1C185.2,5.5,185.8,5.4,186.5,5.4z
			 M186.6,7c-0.7,0-1.2,0.2-1.6,0.6s-0.6,0.9-0.7,1.6h4.3c0-0.3,0-0.6-0.1-0.8c-0.1-0.3-0.2-0.5-0.4-0.7s-0.4-0.4-0.6-0.5
			S186.9,7,186.6,7z"/>
		<path fill="#F9EF7F" d="M198.2,7.4c-0.1,0.1-0.1,0.2-0.2,0.2c-0.1,0-0.2,0.1-0.3,0.1c-0.1,0-0.2,0-0.4-0.1
			c-0.1-0.1-0.3-0.1-0.4-0.2c-0.2-0.1-0.4-0.1-0.6-0.2c-0.2-0.1-0.5-0.1-0.8-0.1c-0.5,0-0.8,0.1-1.1,0.3c-0.3,0.2-0.4,0.4-0.4,0.8
			c0,0.2,0.1,0.4,0.2,0.5s0.3,0.3,0.5,0.4s0.5,0.2,0.7,0.3c0.3,0.1,0.6,0.2,0.9,0.3c0.3,0.1,0.6,0.2,0.9,0.3s0.5,0.3,0.7,0.5
			s0.4,0.4,0.5,0.7c0.1,0.3,0.2,0.6,0.2,1c0,0.5-0.1,0.9-0.3,1.3c-0.2,0.4-0.4,0.7-0.7,1c-0.3,0.3-0.7,0.5-1.2,0.7
			c-0.5,0.2-1,0.2-1.6,0.2c-0.3,0-0.6,0-1-0.1c-0.3-0.1-0.6-0.1-0.9-0.2s-0.6-0.2-0.8-0.4c-0.2-0.1-0.5-0.3-0.6-0.5l0.5-0.9
			c0.1-0.1,0.1-0.2,0.2-0.2s0.2-0.1,0.4-0.1s0.3,0,0.4,0.1c0.1,0.1,0.3,0.2,0.4,0.3c0.2,0.1,0.4,0.2,0.6,0.3
			c0.2,0.1,0.5,0.1,0.9,0.1c0.3,0,0.5,0,0.7-0.1c0.2-0.1,0.4-0.1,0.5-0.3s0.2-0.2,0.3-0.4c0.1-0.1,0.1-0.3,0.1-0.4
			c0-0.2-0.1-0.4-0.2-0.5c-0.1-0.1-0.3-0.3-0.5-0.4c-0.2-0.1-0.5-0.2-0.8-0.3c-0.3-0.1-0.6-0.2-0.9-0.3c-0.3-0.1-0.6-0.2-0.9-0.3
			c-0.3-0.1-0.5-0.3-0.8-0.5c-0.2-0.2-0.4-0.5-0.5-0.8c-0.1-0.3-0.2-0.7-0.2-1.1c0-0.4,0.1-0.8,0.2-1.1c0.2-0.4,0.4-0.7,0.7-0.9
			c0.3-0.3,0.7-0.5,1.1-0.6c0.4-0.2,1-0.2,1.6-0.2c0.7,0,1.3,0.1,1.8,0.3c0.5,0.2,1,0.5,1.3,0.9L198.2,7.4z"/>
		<path fill="#F9EF7F" d="M59.9,37.1H58c-0.2,0-0.4-0.1-0.5-0.2c-0.1-0.1-0.2-0.2-0.3-0.4l-1-2.7h-5.6l-1,2.7c0,0.1-0.1,0.3-0.3,0.4
			c-0.1,0.1-0.3,0.2-0.5,0.2h-1.9l5.3-13.4h2.6L59.9,37.1z M51.2,32h4.3l-1.6-4.5c-0.1-0.2-0.2-0.4-0.2-0.7s-0.2-0.6-0.3-0.9
			c-0.1,0.3-0.2,0.6-0.3,0.9c-0.1,0.3-0.2,0.5-0.2,0.7L51.2,32z"/>
		<path fill="#F9EF7F" d="M67.9,29.6c-0.1,0.1-0.1,0.2-0.2,0.2s-0.2,0.1-0.3,0.1c-0.1,0-0.2,0-0.3-0.1c-0.1-0.1-0.2-0.2-0.4-0.2
			s-0.3-0.2-0.6-0.2s-0.5-0.1-0.8-0.1c-0.4,0-0.8,0.1-1.1,0.2c-0.3,0.1-0.6,0.4-0.8,0.6c-0.2,0.3-0.4,0.6-0.5,1
			c-0.1,0.4-0.1,0.8-0.1,1.3c0,0.5,0.1,1,0.2,1.4s0.3,0.7,0.5,1c0.2,0.3,0.5,0.5,0.7,0.6c0.3,0.1,0.6,0.2,1,0.2c0.4,0,0.7,0,0.9-0.1
			s0.4-0.2,0.6-0.3s0.3-0.2,0.4-0.3s0.2-0.1,0.4-0.1c0.2,0,0.3,0.1,0.4,0.2l0.7,0.8c-0.3,0.3-0.5,0.5-0.8,0.7s-0.6,0.4-0.9,0.5
			s-0.6,0.2-1,0.3c-0.3,0-0.7,0.1-1,0.1c-0.6,0-1.1-0.1-1.7-0.3s-1-0.5-1.4-1c-0.4-0.4-0.7-0.9-0.9-1.5s-0.3-1.3-0.3-2.1
			c0-0.7,0.1-1.3,0.3-1.9s0.5-1.1,0.9-1.6c0.4-0.4,0.9-0.8,1.4-1c0.6-0.2,1.2-0.4,2-0.4c0.7,0,1.3,0.1,1.9,0.3c0.5,0.2,1,0.6,1.4,1
			L67.9,29.6z"/>
		<path fill="#F9EF7F" d="M76.7,29.6c-0.1,0.1-0.1,0.2-0.2,0.2s-0.2,0.1-0.3,0.1c-0.1,0-0.2,0-0.3-0.1c-0.1-0.1-0.2-0.2-0.4-0.2
			s-0.3-0.2-0.6-0.2s-0.5-0.1-0.8-0.1c-0.4,0-0.8,0.1-1.1,0.2c-0.3,0.1-0.6,0.4-0.8,0.6c-0.2,0.3-0.4,0.6-0.5,1
			c-0.1,0.4-0.1,0.8-0.1,1.3c0,0.5,0.1,1,0.2,1.4s0.3,0.7,0.5,1c0.2,0.3,0.5,0.5,0.7,0.6c0.3,0.1,0.6,0.2,1,0.2c0.4,0,0.7,0,0.9-0.1
			s0.4-0.2,0.6-0.3s0.3-0.2,0.4-0.3s0.2-0.1,0.4-0.1c0.2,0,0.3,0.1,0.4,0.2l0.7,0.8c-0.3,0.3-0.5,0.5-0.8,0.7s-0.6,0.4-0.9,0.5
			s-0.6,0.2-1,0.3c-0.3,0-0.7,0.1-1,0.1c-0.6,0-1.1-0.1-1.7-0.3s-1-0.5-1.4-1c-0.4-0.4-0.7-0.9-0.9-1.5s-0.3-1.3-0.3-2.1
			c0-0.7,0.1-1.3,0.3-1.9s0.5-1.1,0.9-1.6c0.4-0.4,0.9-0.8,1.4-1c0.6-0.2,1.2-0.4,2-0.4c0.7,0,1.3,0.1,1.9,0.3c0.5,0.2,1,0.6,1.4,1
			L76.7,29.6z"/>
		<path fill="#F9EF7F" d="M82.8,27.4c0.6,0,1.2,0.1,1.7,0.3c0.5,0.2,0.9,0.5,1.3,0.8c0.4,0.4,0.7,0.8,0.9,1.4S87,31,87,31.7
			c0,0.2,0,0.3,0,0.4c0,0.1,0,0.2-0.1,0.3c0,0.1-0.1,0.1-0.2,0.1c-0.1,0-0.2,0-0.3,0h-5.9c0.1,1,0.3,1.7,0.8,2.2
			c0.5,0.5,1.1,0.7,1.8,0.7c0.4,0,0.7,0,1-0.1s0.5-0.2,0.7-0.3s0.4-0.2,0.5-0.3c0.2-0.1,0.3-0.1,0.4-0.1c0.1,0,0.2,0,0.2,0.1
			c0.1,0,0.1,0.1,0.2,0.2l0.7,0.8c-0.3,0.3-0.5,0.5-0.9,0.7c-0.3,0.2-0.6,0.4-1,0.5s-0.7,0.2-1.1,0.3c-0.4,0-0.7,0.1-1,0.1
			c-0.7,0-1.3-0.1-1.8-0.3s-1.1-0.5-1.5-1s-0.8-1-1-1.6c-0.2-0.6-0.4-1.4-0.4-2.2c0-0.7,0.1-1.3,0.3-1.8c0.2-0.6,0.5-1.1,0.9-1.5
			c0.4-0.4,0.9-0.8,1.4-1C81.5,27.5,82.1,27.4,82.8,27.4z M82.9,29c-0.7,0-1.2,0.2-1.6,0.6c-0.4,0.4-0.6,0.9-0.7,1.6h4.3
			c0-0.3,0-0.6-0.1-0.8c-0.1-0.3-0.2-0.5-0.4-0.7c-0.2-0.2-0.4-0.4-0.6-0.5S83.2,29,82.9,29z"/>
		<path fill="#F9EF7F" d="M91.3,23.3v13.8H89V23.3H91.3z"/>
		<path fill="#F9EF7F" d="M97.8,27.4c0.6,0,1.2,0.1,1.7,0.3c0.5,0.2,0.9,0.5,1.3,0.8c0.4,0.4,0.7,0.8,0.9,1.4
			c0.2,0.5,0.3,1.1,0.3,1.8c0,0.2,0,0.3,0,0.4c0,0.1,0,0.2-0.1,0.3c0,0.1-0.1,0.1-0.2,0.1c-0.1,0-0.2,0-0.3,0h-5.9
			c0.1,1,0.3,1.7,0.8,2.2c0.5,0.5,1.1,0.7,1.8,0.7c0.4,0,0.7,0,1-0.1c0.3-0.1,0.5-0.2,0.7-0.3c0.2-0.1,0.4-0.2,0.5-0.3
			c0.2-0.1,0.3-0.1,0.4-0.1c0.1,0,0.2,0,0.2,0.1s0.1,0.1,0.2,0.2l0.7,0.8c-0.3,0.3-0.5,0.5-0.9,0.7c-0.3,0.2-0.6,0.4-1,0.5
			s-0.7,0.2-1,0.3c-0.4,0-0.7,0.1-1,0.1c-0.7,0-1.3-0.1-1.8-0.3c-0.6-0.2-1.1-0.5-1.5-1c-0.4-0.4-0.8-1-1-1.6
			c-0.2-0.6-0.4-1.4-0.4-2.2c0-0.7,0.1-1.3,0.3-1.8c0.2-0.6,0.5-1.1,0.9-1.5c0.4-0.4,0.9-0.8,1.4-1C96.4,27.5,97.1,27.4,97.8,27.4z
			 M97.8,29c-0.7,0-1.2,0.2-1.6,0.6s-0.6,0.9-0.7,1.6h4.3c0-0.3,0-0.6-0.1-0.8c-0.1-0.3-0.2-0.5-0.4-0.7s-0.4-0.4-0.6-0.5
			S98.2,29,97.8,29z"/>
		<path fill="#F9EF7F" d="M103.8,37.1v-9.5h1.3c0.2,0,0.4,0,0.5,0.1s0.2,0.2,0.2,0.4l0.1,1.2c0.3-0.6,0.7-1.1,1.2-1.4
			c0.5-0.3,1-0.5,1.5-0.5c0.5,0,0.9,0.1,1.2,0.3l-0.3,1.7c0,0.1-0.1,0.2-0.1,0.2c-0.1,0-0.1,0.1-0.3,0.1c-0.1,0-0.2,0-0.4-0.1
			c-0.2,0-0.4-0.1-0.6-0.1c-0.5,0-0.9,0.1-1.2,0.4c-0.3,0.3-0.6,0.6-0.9,1.2v5.9H103.8z"/>
		<path fill="#F9EF7F" d="M118.6,37.1h-1c-0.2,0-0.4,0-0.5-0.1s-0.2-0.2-0.3-0.4l-0.2-0.7c-0.2,0.2-0.5,0.4-0.7,0.6
			s-0.5,0.3-0.7,0.4c-0.2,0.1-0.5,0.2-0.8,0.3c-0.3,0.1-0.6,0.1-0.9,0.1c-0.4,0-0.8-0.1-1.1-0.2s-0.6-0.3-0.9-0.5
			c-0.2-0.2-0.4-0.5-0.6-0.8c-0.1-0.3-0.2-0.7-0.2-1.1c0-0.4,0.1-0.7,0.3-1.1c0.2-0.4,0.5-0.7,0.9-1c0.4-0.3,1-0.5,1.8-0.7
			c0.7-0.2,1.6-0.3,2.7-0.3v-0.6c0-0.6-0.1-1.1-0.4-1.4s-0.7-0.5-1.2-0.5c-0.4,0-0.7,0-0.9,0.1c-0.2,0.1-0.5,0.2-0.6,0.3
			c-0.2,0.1-0.4,0.2-0.5,0.3c-0.2,0.1-0.3,0.1-0.5,0.1c-0.2,0-0.3,0-0.4-0.1c-0.1-0.1-0.2-0.2-0.3-0.3l-0.4-0.7c1.1-1,2.4-1.5,4-1.5
			c0.6,0,1.1,0.1,1.5,0.3s0.8,0.4,1.1,0.8s0.5,0.7,0.7,1.2s0.2,0.9,0.2,1.5V37.1z M114.1,35.6c0.2,0,0.5,0,0.7-0.1s0.4-0.1,0.6-0.2
			c0.2-0.1,0.3-0.2,0.5-0.3s0.3-0.3,0.5-0.4V33c-0.7,0-1.2,0-1.7,0.1c-0.4,0.1-0.8,0.2-1.1,0.3s-0.5,0.3-0.6,0.5s-0.2,0.4-0.2,0.6
			c0,0.4,0.1,0.7,0.4,0.9C113.4,35.6,113.7,35.6,114.1,35.6z"/>
		<path fill="#F9EF7F" d="M124,37.2c-0.8,0-1.5-0.2-1.9-0.7s-0.7-1.1-0.7-1.9v-5.3h-1c-0.1,0-0.2,0-0.3-0.1
			c-0.1-0.1-0.1-0.2-0.1-0.4v-0.9l1.5-0.3L122,25c0-0.1,0.1-0.2,0.2-0.3s0.2-0.1,0.3-0.1h1.2v3h2.5v1.6h-2.5v5.2
			c0,0.3,0.1,0.5,0.2,0.7c0.1,0.2,0.3,0.3,0.6,0.3c0.1,0,0.3,0,0.4-0.1c0.1,0,0.2-0.1,0.2-0.1s0.1-0.1,0.2-0.1
			c0.1,0,0.1-0.1,0.2-0.1c0.1,0,0.1,0,0.2,0.1s0.1,0.1,0.1,0.2l0.7,1.1c-0.3,0.3-0.7,0.5-1.2,0.6C124.9,37.2,124.4,37.2,124,37.2z"
			/>
		<path fill="#F9EF7F" d="M132.1,27.4c0.7,0,1.4,0.1,1.9,0.3c0.6,0.2,1.1,0.6,1.5,1c0.4,0.4,0.7,0.9,0.9,1.5c0.2,0.6,0.3,1.3,0.3,2
			c0,0.8-0.1,1.4-0.3,2c-0.2,0.6-0.5,1.1-0.9,1.6c-0.4,0.4-0.9,0.8-1.5,1c-0.6,0.2-1.2,0.3-1.9,0.3c-0.7,0-1.4-0.1-1.9-0.3
			c-0.6-0.2-1.1-0.6-1.5-1c-0.4-0.4-0.7-0.9-1-1.6c-0.2-0.6-0.3-1.3-0.3-2c0-0.7,0.1-1.4,0.3-2c0.2-0.6,0.5-1.1,1-1.5
			c0.4-0.4,0.9-0.7,1.5-1C130.7,27.5,131.4,27.4,132.1,27.4z M132.1,35.5c0.8,0,1.4-0.3,1.8-0.8c0.4-0.5,0.6-1.3,0.6-2.3
			s-0.2-1.8-0.6-2.4c-0.4-0.5-1-0.8-1.8-0.8c-0.8,0-1.4,0.3-1.8,0.8c-0.4,0.5-0.6,1.3-0.6,2.3s0.2,1.8,0.6,2.3
			C130.7,35.2,131.3,35.5,132.1,35.5z"/>
		<path fill="#F9EF7F" d="M138.6,37.1v-9.5h1.3c0.2,0,0.4,0,0.5,0.1s0.2,0.2,0.2,0.4l0.1,1.2c0.3-0.6,0.7-1.1,1.2-1.4
			c0.5-0.3,1-0.5,1.5-0.5c0.5,0,0.9,0.1,1.2,0.3l-0.3,1.7c0,0.1-0.1,0.2-0.1,0.2c-0.1,0-0.1,0.1-0.3,0.1c-0.1,0-0.2,0-0.4-0.1
			c-0.2,0-0.4-0.1-0.6-0.1c-0.5,0-0.9,0.1-1.2,0.4c-0.3,0.3-0.6,0.6-0.9,1.2v5.9H138.6z"/>
	</g>
	<defs>
		<filter id="Adobe_OpacityMaskFilter" filterUnits="userSpaceOnUse" x="0.2" y="0" width="37.1" height="37.1">
			<feColorMatrix  type="matrix" values="1 0 0 0 0  0 1 0 0 0  0 0 1 0 0  0 0 0 1 0"/>
		</filter>
	</defs>
	<mask maskUnits="userSpaceOnUse" x="0.2" y="0" width="37.1" height="37.1" id="SVGID_1_">
		<g filter="url(#Adobe_OpacityMaskFilter)">
			<circle fill="#FFFFFF" cx="18.4" cy="18.3" r="20.3"/>
		</g>
	</mask>
	<g mask="url(#SVGID_1_)">
		<path fill="#F9EF7F" d="M18.7,37.1c-10.2,0-18.6-8.3-18.6-18.6C0.2,8.3,8.5,0,18.7,0s18.6,8.3,18.6,18.6
			C37.3,28.8,29,37.1,18.7,37.1z M18.7,2.6c-8.8,0-16,7.2-16,16s7.2,16,16,16s16-7.2,16-16S27.5,2.6,18.7,2.6z"/>
	</g>
	<defs>
		<filter id="Adobe_OpacityMaskFilter_1_" filterUnits="userSpaceOnUse" x="8.6" y="7.9" width="20.3" height="18.3">
			<feColorMatrix  type="matrix" values="1 0 0 0 0  0 1 0 0 0  0 0 1 0 0  0 0 0 1 0"/>
		</filter>
	</defs>
	<mask maskUnits="userSpaceOnUse" x="8.6" y="7.9" width="20.3" height="18.3" id="SVGID_2_">
		<g filter="url(#Adobe_OpacityMaskFilter_1_)">
			<circle fill="#FFFFFF" cx="18.6" cy="18.6" r="18.1"/>
			<path fill="#231F20" d="M18,23.6c0.8,0,1.4,0.3,1.4,1.3c0,0.9-0.5,1.4-1.3,1.4c-0.8,0,4.8,0.6,4.8,0.6l-1.2-4.7
				C21.7,22.2,17.2,23.6,18,23.6z"/>
			<path fill="#231F20" d="M12.3,16.5c0.5-0.6,1.1-0.9,1.9-0.3c0.7,0.6,0.8,1.2,0.3,1.9c-0.5,0.7,3.4-3.5,3.4-3.5l-4.4-1.9
				C13.5,12.7,11.8,17.2,12.3,16.5z"/>
		</g>
	</mask>
	<g mask="url(#SVGID_2_)">
		<path fill="#F9EF7F" d="M26.4,26.2H11.1c-0.9,0-1.7-0.5-2.2-1.2c-0.5-0.8-0.5-1.7,0-2.5l7.7-13.3c0.5-0.8,1.3-1.2,2.2-1.2
			c0,0,0,0,0,0c0.9,0,1.7,0.5,2.2,1.2l7.7,13.3c0.5,0.8,0.5,1.7,0,2.5C28.1,25.7,27.3,26.2,26.4,26.2z M11.2,23.6h15l-7.5-13
			L11.2,23.6z"/>
	</g>
	<g>
		<path fill="#F9EF7F" d="M17.6,19.2C15.1,15,12.8,11,12.8,7.6c0-4.5,2.4-7.6,5.9-7.6v2.6c-2.6,0-3.3,3.1-3.3,5
			c0,2.7,2.2,6.6,4.4,10.3L17.6,19.2z"/>
	</g>
	<g>
		<path fill="#F9EF7F" d="M18.8,37.1v-2.6c2.6,0,3.3-3.1,3.3-5c0-2.7-2.2-6.6-4.5-10.3l2.2-1.3c2.5,4.2,4.8,8.3,4.8,11.7
			C24.7,34,22.2,37.1,18.8,37.1z"/>
	</g>
</g>
</svg>
